<svg xmlns="http://www.w3.org/2000/svg" xmlns:xlink="http://www.w3.org/1999/xlink" width="133.97509765625" height="139.22970581054688" viewBox="0 0 133.97509765625 139.22970581054688" fill="none">
<g opacity="0.15">
<g filter="url(#filter_5_18)">
<path d="M26.8745 6.6835C30.5954 4.11419 34.5598 1.87247 38.7262 -1.01038e-08C42.1157 3.60143 44.3584 7.77607 46.6578 13.7261C48.5322 19.1679 47.4264 22.7879 43.3405 24.5859C39.6617 26.3829 36.2925 27.4673 34.5582 29.1996C32.824 30.9319 31.7384 34.2973 29.9393 37.9719C28.1392 42.0532 24.5152 43.1577 19.0672 41.2855C12.3136 38.6814 7.84471 36.1502 3.90655 31.9397C5.91955 28.3337 8.22156 24.9109 10.7812 21.7028C13.9579 21.4219 18.0318 20.8407 18.7687 20.1046L25.2807 13.6C25.9295 12.9519 26.5166 9.66146 26.8745 6.6835ZM115.178 127.887C121.506 123.01 127.034 117.146 131.53 110.525C130.969 109.499 130.255 108.535 129.386 107.667L110.06 88.3509L105.762 88.3112L99.9777 82.53L99.9384 78.2337L93.431 71.7303L75.6879 89.4644L82.1948 95.9677L82.235 100.265L88.0185 106.046L92.3167 106.086L111.642 125.401L111.648 125.407C112.704 126.461 113.901 127.287 115.178 127.887ZM106.714 10.3921C112.355 16.0265 112.355 25.1617 106.714 30.7962C106.632 30.8782 106.548 30.9593 106.464 31.0394L77.9531 58.1753L77.9178 63.2275L71.1266 70.0109L66.0687 70.0462L58.4285 77.6777L58.202 77.9006C50.6859 85.1717 38.7757 85.1818 31.453 77.8671C24.0563 70.4789 24.1412 58.4155 31.6425 50.9225C36.3903 46.1802 42.9711 44.4053 49.0381 45.6146L85.6214 10.2237C91.5188 4.51817 100.908 4.59316 106.714 10.3921ZM39.857 17.5355C40.7419 18.4194 40.7419 19.8525 39.857 20.7364C38.9721 21.6202 37.5375 21.6202 36.6526 20.7363L35.8434 19.9281L35.0287 20.7419C34.1408 21.6287 32.7014 21.6287 31.8135 20.7419C30.9257 19.855 30.9257 18.4172 31.8135 17.5303L32.6282 16.7166L31.8191 15.9083C30.9342 15.0244 30.9342 13.5914 31.8191 12.7075C32.704 11.8236 34.1386 11.8236 35.0235 12.7075L35.8327 13.5157L36.6363 12.713C37.5241 11.8262 38.9636 11.8262 39.8515 12.713C40.7393 13.5999 40.7393 15.0378 39.8515 15.9246L39.0478 16.7273L39.857 17.5355ZM19.1895 29.1685C20.0072 29.9853 19.8178 31.4988 18.7664 32.549C17.715 33.5993 16.1998 33.7884 15.382 32.9716C14.5643 32.1548 14.7537 30.6413 15.8051 29.591C16.8565 28.5408 18.3717 28.3516 19.1895 29.1685ZM26.3688 30.3637C27.1866 31.1805 26.9972 32.6941 25.9458 33.7443C24.8944 34.7945 23.3791 34.9837 22.5614 34.1669C21.7436 33.35 21.9331 31.8365 22.9844 30.7863C24.0358 29.7361 25.5511 29.5469 26.3688 30.3637ZM123.206 47.7561L131.053 55.5949L133.911 46.6027C134.138 45.8897 133.743 45.1278 133.028 44.9013C132.762 44.817 132.474 44.817 132.207 44.9013L123.206 47.7561ZM127.444 66.2306L129.787 58.8608L119.936 49.0212L112.558 51.3608C111.715 51.6274 110.95 52.0923 110.326 52.7168L104.659 58.3768C103.063 59.9706 103.063 62.5553 104.659 64.1497L114.641 74.1204C116.237 75.7146 118.825 75.7146 120.421 74.1204L126.087 68.4603C126.712 67.8364 127.178 67.0717 127.444 66.2306ZM34.8987 54.0374C29.2728 59.6119 29.2457 68.6227 34.8383 74.1643C40.4311 79.7053 49.5257 79.6784 55.1518 74.1039C60.778 68.53 60.8049 59.5187 55.2122 53.9777C49.6194 48.4365 40.5249 48.4633 34.8987 54.0374ZM49.7917 60.8992C49.8265 61.0946 49.8262 61.2942 49.7908 61.4896L48.2038 70.2571C48.0393 71.1661 47.1679 71.7703 46.2576 71.6059C45.9241 71.5456 45.6167 71.3854 45.376 71.147L38.1144 63.9524C37.4576 63.3016 37.4533 62.242 38.1048 61.5864C38.3479 61.3414 38.6607 61.1777 39.0005 61.1173L47.8493 59.545C48.76 59.383 49.6297 59.9896 49.7917 60.8992ZM0.876278 82.6572L12.6916 70.8552C13.8598 69.6883 15.7536 69.6881 16.9221 70.8552C17.483 71.4156 17.7983 72.1757 17.798 72.9679L17.7981 96.5717C17.7982 98.2227 16.4589 99.5597 14.8066 99.5597C14.0135 99.5597 13.2526 99.2457 12.6916 98.6847L0.876261 86.8829C-0.292206 85.7157 -0.291974 83.8241 0.876278 82.6572ZM47.2683 107.129C45.3998 104.681 45.2215 101.702 46.8703 100.476C48.5199 99.2487 51.3712 100.239 53.2404 102.686C55.1091 105.134 55.2869 108.113 53.6379 109.339C51.9889 110.566 49.1372 109.576 47.2683 107.129ZM61.2466 109.085C59.3774 106.637 59.1996 103.659 60.8486 102.432C62.4975 101.205 65.3493 102.195 67.2181 104.643C69.0867 107.09 69.265 110.069 67.6162 111.296C65.9672 112.522 63.1153 111.533 61.2466 109.085ZM37.3153 114.532C35.4466 112.084 35.2683 109.106 36.9179 107.879C38.5669 106.652 41.4186 107.642 43.2873 110.09C45.156 112.538 45.3343 115.516 43.6854 116.743C42.0358 117.97 39.1845 116.98 37.3153 114.532ZM52.4982 117.973C56.3191 115.096 61.0154 114.685 63.7966 116.76C67.0326 115.893 70.1859 116.574 71.8756 118.814C74.3358 122.075 72.7618 127.404 68.3605 130.717C66.9086 131.81 65.3308 132.547 63.7795 132.927C62.9869 134.312 61.8427 135.624 60.3907 136.717C55.9894 140.03 50.427 140.073 47.9669 136.812C46.2772 134.572 46.4908 131.356 48.2172 128.488C46.9867 125.245 48.6768 120.849 52.4982 117.973ZM35.3689 128.334C33.4997 125.886 33.3219 122.908 34.9709 121.681C36.6198 120.454 39.4716 121.444 41.3404 123.892C43.209 126.34 43.3874 129.318 41.7384 130.545C40.0894 131.772 37.2376 130.782 35.3689 128.334Z" fill-rule="evenodd"  fill="#000000" >
</path>
</g>
</g>
<defs>
<filter id="filter_5_18" x="0" y="0" width="133.97509765625" height="139.22970581054688" filterUnits="userSpaceOnUse" color-interpolation-filters="sRGB">
<feFlood flood-opacity="0" result="feFloodId_5_18"/>
<feBlend mode="normal" in="SourceGraphic" in2="feFloodId_5_18" result="shape_5_18"/>
<feColorMatrix in="SourceAlpha" type="matrix" values="0 0 0 0 0 0 0 0 0 0 0 0 0 0 0 0 0 0 127 0" result="hardAlpha_5_18"/>
<feOffset dx="0" dy="2"/>
<feGaussianBlur stdDeviation="2"/>
<feComposite in2="hardAlpha_5_18" operator="arithmetic" k2="-1" k3="1"/>
<feColorMatrix type="matrix" values="0 0 0 0 0 0 0 0 0 0 0 0 0 0 0 0 0 0 0.25 0"/>
<feBlend mode="normal" in2="shape_5_18" result="innerShadow_0_5_18" />
</filter>
</defs>
</svg>
