<svg xmlns="http://www.w3.org/2000/svg" xmlns:xlink="http://www.w3.org/1999/xlink" width="211" height="77" viewBox="0 0 211 77" fill="none">
<path     fill="url(#linear_fill_7_4_0_0)"  d="M0 40.8154C5.55973 38.6615 8.17767 33.8962 8.17767 33.8962C10.7956 29.1308 10.7956 22.5615 10.7956 22.5615L10.7956 9.15385L0.647736 9.15385L0.647736 2.20769L49.2279 2.20769L49.2279 9.15385L17.8127 9.15385L17.8127 17.3923L45.5035 17.3923L45.5035 48.7308L30.8214 48.7308L30.8214 41.7308L38.5403 41.7308L38.5403 24.2846L17.8127 24.2846C17.4889 33.2769 13.1976 39.7385 13.1976 39.7385C8.90637 46.2 0 49 0 49L0 40.8154Z">
</path>
<path     fill="url(#linear_fill_7_4_1_0)"  d="M96.5666 0.269231C95.0553 5.00769 93.0581 8.93846 93.0581 8.93846L100.237 8.93846L100.237 22.3462L82.5324 22.3462C83.504 25.1462 84.0977 27.6231 84.0977 27.6231C87.6063 28.9692 90.6291 31.0154 90.6291 31.0154L95.3251 23.8L103.044 23.8L96.5666 33.7077L94.0297 33.7077C100.345 39.3615 103.476 48.7308 103.476 48.7308L95.757 48.7308C93.0041 40.0077 85.3932 36.1846 85.3932 36.1846C85.771 41.1385 85.771 48.7308 85.771 48.7308L78.7539 48.7308C78.7539 45.8769 78.6999 44.4769 78.6999 44.4769C73.8419 45.8231 68.0393 46.8462 68.0393 46.8462C62.2366 47.8692 54.6257 48.8923 54.6257 48.8923L54.6257 43.1846C68.0663 41.5154 78.43 38.7692 78.43 38.7692C78.3761 37.8538 78.1601 35.7538 78.1601 35.7538C73.68 37.0462 68.4171 38.0154 68.4171 38.0154C63.1543 38.9846 55.9212 40.0615 55.9212 40.0615L55.9212 34.3538C66.6088 33.0077 77.2425 30.1 77.2425 30.1C77.0806 29.2385 76.6488 27.6231 76.6488 27.6231C68.714 29.7231 57.1087 31.3385 57.1087 31.3385L57.1087 25.7923C67.7964 24.3923 74.9754 22.3462 74.9754 22.3462L57.5945 22.3462L57.5945 14.9154C56.6769 15.3462 54.6257 16.1 54.6257 16.1L54.6257 9.26154C60.3474 6.19231 63.1003 0.269231 63.1003 0.269231L96.5666 0.269231ZM75.4612 17.0154L75.4612 14.1615L64.5037 14.1615L64.5037 17.0154L75.4612 17.0154ZM85.2852 8.93846C86.2568 7.21538 86.6347 6.3 86.6347 6.3L67.4185 6.3C66.3929 7.86154 65.4753 8.93846 65.4753 8.93846L85.2852 8.93846ZM93.328 17.0154L93.328 14.1615L82.3704 14.1615L82.3704 17.0154L93.328 17.0154Z">
</path>
<path     fill="url(#linear_fill_7_4_2_0)"  d="M107.362 31.8769C114.811 22.7231 118.968 12.4923 118.968 12.4923L109.305 12.4923L109.305 5.81538L115.459 5.81538L115.459 0L122.368 0L122.368 5.81538L128.36 5.81538C126.794 12.4385 123.718 19.3308 123.718 19.3308L122.422 21.9692L122.422 22.2923L128.468 25.0923L128.468 32.5231L122.422 29.7231L122.422 48.7308L115.297 48.7308L115.297 31.8769L107.362 31.8769ZM128.036 40.7615L138.939 40.7615L138.939 19.0077L129.655 19.0077L129.655 11.9538L138.939 11.9538L138.939 0.430769L146.064 0.430769L146.064 11.9538L155.888 11.9538L155.888 19.0077L146.064 19.0077L146.064 40.7615L157.508 40.7615L157.508 47.8154L128.036 47.8154L128.036 40.7615Z">
</path>
<path     fill="url(#linear_fill_7_4_3_0)"  d="M164.525 1.50769L211 1.50769L211 8.4L171.488 8.4L171.488 40.6L211 40.6L211 47.4923L164.525 47.4923L164.525 1.50769ZM173.323 32.3077C181.204 29.2923 186.278 26.0615 186.278 26.0615C179.153 19.1154 175.914 9.85385 175.914 9.85385L184.173 9.85385C186.98 16.8538 192.054 21.5923 192.054 21.5923C197.182 16.9077 199.988 9.85385 199.988 9.85385L208.247 9.85385C205.008 19.1154 197.883 26.0615 197.883 26.0615C202.957 29.2923 210.838 32.3077 210.838 32.3077L210.838 39.9C199.935 36.4538 192.108 30.8538 192.108 30.8538C184.173 36.4538 173.323 39.9 173.323 39.9L173.323 32.3077Z">
</path>
<path     fill="url(#linear_fill_7_5_0_0)"  d="M0 58.3842L9.46969 58.3842L9.46969 61.1123L3.17581 61.1123L3.17581 64.1214L8.64205 64.1214L8.64205 66.669L3.17581 66.669L3.17581 69.6981L9.46969 69.6981L9.46969 72.4263L0 72.4263L0 58.3842Z">
</path>
<path     fill="url(#linear_fill_7_5_0_1)"  d="M0 58.3842L9.46969 58.3842L9.46969 61.1123L3.17581 61.1123L3.17581 64.1214L8.64205 64.1214L8.64205 66.669L3.17581 66.669L3.17581 69.6981L9.46969 69.6981L9.46969 72.4263L0 72.4263L0 58.3842Z">
</path>
<path     fill="url(#linear_fill_7_5_1_0)"  d="M10.1433 61.5938L13.2614 61.5938L15.7443 70.4604L15.8406 70.4604L18.3427 61.5938L21.4415 61.5938L18.1502 72.4263L13.4346 72.4263L10.1433 61.5938Z">
</path>
<path     fill="url(#linear_fill_7_5_1_1)"  d="M10.1433 61.5938L13.2614 61.5938L15.7443 70.4604L15.8406 70.4604L18.3427 61.5938L21.4415 61.5938L18.1502 72.4263L13.4346 72.4263L10.1433 61.5938Z">
</path>
<path     fill="url(#linear_fill_7_5_2_0)"  d="M31.9506 71.8445C31.2192 72.3059 30.2472 72.5266 30.2472 72.5266C29.2752 72.7472 28.3706 72.7472 28.3706 72.7472C25.291 72.7472 23.7031 71.2227 23.7031 71.2227C22.1152 69.6981 22.1152 66.9499 22.1152 66.9499C22.1152 64.2217 23.5299 62.7673 23.5299 62.7673C24.9445 61.3129 27.389 61.3129 27.389 61.3129C29.8141 61.3129 31.2288 62.7673 31.2288 62.7673C32.6435 64.2217 32.6435 66.9499 32.6435 66.9499C32.6435 67.2508 32.605 67.8124 32.605 67.8124L25.1178 67.8124C25.5412 70.4002 28.3706 70.4002 28.3706 70.4002C30.353 70.4002 31.9506 69.1765 31.9506 69.1765L31.9506 71.8445ZM29.7371 65.5657C29.4869 64.5627 28.871 64.0812 28.871 64.0812C28.2551 63.5998 27.389 63.5998 27.389 63.5998C26.5806 63.5998 26.0128 64.1013 26.0128 64.1013C25.445 64.6028 25.214 65.5657 25.214 65.5657L29.7371 65.5657Z">
</path>
<path     fill="url(#linear_fill_7_5_2_1)"  d="M31.9506 71.8445C31.2192 72.3059 30.2472 72.5266 30.2472 72.5266C29.2752 72.7472 28.3706 72.7472 28.3706 72.7472C25.291 72.7472 23.7031 71.2227 23.7031 71.2227C22.1152 69.6981 22.1152 66.9499 22.1152 66.9499C22.1152 64.2217 23.5299 62.7673 23.5299 62.7673C24.9445 61.3129 27.389 61.3129 27.389 61.3129C29.8141 61.3129 31.2288 62.7673 31.2288 62.7673C32.6435 64.2217 32.6435 66.9499 32.6435 66.9499C32.6435 67.2508 32.605 67.8124 32.605 67.8124L25.1178 67.8124C25.5412 70.4002 28.3706 70.4002 28.3706 70.4002C30.353 70.4002 31.9506 69.1765 31.9506 69.1765L31.9506 71.8445ZM29.7371 65.5657C29.4869 64.5627 28.871 64.0812 28.871 64.0812C28.2551 63.5998 27.389 63.5998 27.389 63.5998C26.5806 63.5998 26.0128 64.1013 26.0128 64.1013C25.445 64.6028 25.214 65.5657 25.214 65.5657L29.7371 65.5657Z">
</path>
<path     fill="url(#linear_fill_7_5_3_0)"  d="M37.2628 61.5938L37.2628 62.7573C37.7633 62.1956 38.4658 61.8847 38.4658 61.8847C39.1683 61.5737 39.8612 61.5737 39.8612 61.5737C40.3424 61.5737 40.7659 61.7141 40.7659 61.7141L40.7659 64.1815C40.2269 64.0411 39.7457 64.0411 39.7457 64.0411C39.0143 64.0411 38.3599 64.2919 38.3599 64.2919C37.7055 64.5426 37.2628 65.0843 37.2628 65.0843L37.2628 72.4263L34.1833 72.4263L34.1833 61.5938L37.2628 61.5938Z">
</path>
<path     fill="url(#linear_fill_7_5_3_1)"  d="M37.2628 61.5938L37.2628 62.7573C37.7633 62.1956 38.4658 61.8847 38.4658 61.8847C39.1683 61.5737 39.8612 61.5737 39.8612 61.5737C40.3424 61.5737 40.7659 61.7141 40.7659 61.7141L40.7659 64.1815C40.2269 64.0411 39.7457 64.0411 39.7457 64.0411C39.0143 64.0411 38.3599 64.2919 38.3599 64.2919C37.7055 64.5426 37.2628 65.0843 37.2628 65.0843L37.2628 72.4263L34.1833 72.4263L34.1833 61.5938L37.2628 61.5938Z">
</path>
<path     fill="url(#linear_fill_7_5_4_0)"  d="M48.9652 72.6871C48.3301 74.7934 46.7518 75.8365 46.7518 75.8365C45.1735 76.9198 42.0747 77 42.0747 77L42.0747 74.4122C43.3835 74.4122 44.3459 74.1113 44.3459 74.1113C45.2312 73.8104 45.6354 73.3089 45.6354 73.3089C46.0589 72.8074 46.2706 72.005 46.2706 72.005L46.5208 71.0822L44.827 71.0822L41.0738 61.5938L44.2111 61.5938L47.0212 69.1966L49.0614 61.5938L52.2565 61.5938L48.9652 72.6871Z">
</path>
<path     fill="url(#linear_fill_7_5_4_1)"  d="M48.9652 72.6871C48.3301 74.7934 46.7518 75.8365 46.7518 75.8365C45.1735 76.9198 42.0747 77 42.0747 77L42.0747 74.4122C43.3835 74.4122 44.3459 74.1113 44.3459 74.1113C45.2312 73.8104 45.6354 73.3089 45.6354 73.3089C46.0589 72.8074 46.2706 72.005 46.2706 72.005L46.5208 71.0822L44.827 71.0822L41.0738 61.5938L44.2111 61.5938L47.0212 69.1966L49.0614 61.5938L52.2565 61.5938L48.9652 72.6871Z">
</path>
<path     fill="url(#linear_fill_7_5_5_0)"  d="M54.0273 61.5938L54.0273 58.5045L56.9144 58.5045L56.9144 61.5938L58.9161 61.5938L58.9161 64.0411L56.9144 64.0411L56.9144 68.6951C56.9144 69.2768 57.001 69.5777 57.001 69.5777C57.0876 69.8786 57.3186 69.989 57.3186 69.989C57.5495 70.0993 57.9922 70.0993 57.9922 70.0993C58.2809 70.0993 58.483 70.0792 58.483 70.0792C58.6851 70.0592 58.8391 70.0191 58.8391 70.0191L58.8391 72.4865C58.0307 72.5868 57.3378 72.5868 57.3378 72.5868C56.0097 72.5868 55.3553 72.3059 55.3553 72.3059C54.7009 72.0251 54.3641 71.333 54.3641 71.333C54.0273 70.6409 54.0273 69.3571 54.0273 69.3571L54.0273 64.0411L52.526 64.0411L52.526 61.5938L54.0273 61.5938Z">
</path>
<path     fill="url(#linear_fill_7_5_5_1)"  d="M54.0273 61.5938L54.0273 58.5045L56.9144 58.5045L56.9144 61.5938L58.9161 61.5938L58.9161 64.0411L56.9144 64.0411L56.9144 68.6951C56.9144 69.2768 57.001 69.5777 57.001 69.5777C57.0876 69.8786 57.3186 69.989 57.3186 69.989C57.5495 70.0993 57.9922 70.0993 57.9922 70.0993C58.2809 70.0993 58.483 70.0792 58.483 70.0792C58.6851 70.0592 58.8391 70.0191 58.8391 70.0191L58.8391 72.4865C58.0307 72.5868 57.3378 72.5868 57.3378 72.5868C56.0097 72.5868 55.3553 72.3059 55.3553 72.3059C54.7009 72.0251 54.3641 71.333 54.3641 71.333C54.0273 70.6409 54.0273 69.3571 54.0273 69.3571L54.0273 64.0411L52.526 64.0411L52.526 61.5938L54.0273 61.5938Z">
</path>
<path     fill="url(#linear_fill_7_5_6_0)"  d="M63.343 57.0201L63.343 62.7573C64.0359 62.1555 64.8828 61.8245 64.8828 61.8245C65.7296 61.4935 66.5958 61.4935 66.5958 61.4935C68.0778 61.4935 68.9536 62.3962 68.9536 62.3962C69.8293 63.2989 69.8293 64.7432 69.8293 64.7432L69.8293 72.4263L66.7497 72.4263L66.7497 65.2849C66.7497 64.7031 66.2878 64.332 66.2878 64.332C65.8259 63.9609 65.1907 63.9609 65.1907 63.9609C64.825 63.9609 64.2861 64.2016 64.2861 64.2016C63.7472 64.4423 63.343 64.8034 63.343 64.8034L63.343 72.4263L60.2634 72.4263L60.2634 57.0201L63.343 57.0201Z">
</path>
<path     fill="url(#linear_fill_7_5_6_1)"  d="M63.343 57.0201L63.343 62.7573C64.0359 62.1555 64.8828 61.8245 64.8828 61.8245C65.7296 61.4935 66.5958 61.4935 66.5958 61.4935C68.0778 61.4935 68.9536 62.3962 68.9536 62.3962C69.8293 63.2989 69.8293 64.7432 69.8293 64.7432L69.8293 72.4263L66.7497 72.4263L66.7497 65.2849C66.7497 64.7031 66.2878 64.332 66.2878 64.332C65.8259 63.9609 65.1907 63.9609 65.1907 63.9609C64.825 63.9609 64.2861 64.2016 64.2861 64.2016C63.7472 64.4423 63.343 64.8034 63.343 64.8034L63.343 72.4263L60.2634 72.4263L60.2634 57.0201L63.343 57.0201Z">
</path>
<path     fill="url(#linear_fill_7_5_7_0)"  d="M75.0838 61.5938L75.0838 72.4263L72.0043 72.4263L72.0043 61.5938L75.0838 61.5938ZM72.0043 57L75.0838 57L75.0838 60.2096L72.0043 60.2096L72.0043 57Z">
</path>
<path     fill="url(#linear_fill_7_5_7_1)"  d="M75.0838 61.5938L75.0838 72.4263L72.0043 72.4263L72.0043 61.5938L75.0838 61.5938ZM72.0043 57L75.0838 57L75.0838 60.2096L72.0043 60.2096L72.0043 57Z">
</path>
<path     fill="url(#linear_fill_7_5_8_0)"  d="M80.3384 61.5537L80.3384 62.8576C81.0505 62.2156 81.9648 61.8546 81.9648 61.8546C82.879 61.4935 83.7836 61.4935 83.7836 61.4935C85.2657 61.4935 86.1414 62.3962 86.1414 62.3962C87.0172 63.2989 87.0172 64.7432 87.0172 64.7432L87.0172 72.3862L83.9376 72.3862L83.9376 65.2849C83.9376 64.7031 83.4757 64.332 83.4757 64.332C83.0137 63.9609 82.3786 63.9609 82.3786 63.9609C81.9744 63.9609 81.3681 64.2417 81.3681 64.2417C80.7618 64.5226 80.3384 64.9238 80.3384 64.9238L80.3384 72.3862L77.2588 72.3862L77.2588 61.5537L80.3384 61.5537Z">
</path>
<path     fill="url(#linear_fill_7_5_8_1)"  d="M80.3384 61.5537L80.3384 62.8576C81.0505 62.2156 81.9648 61.8546 81.9648 61.8546C82.879 61.4935 83.7836 61.4935 83.7836 61.4935C85.2657 61.4935 86.1414 62.3962 86.1414 62.3962C87.0172 63.2989 87.0172 64.7432 87.0172 64.7432L87.0172 72.3862L83.9376 72.3862L83.9376 65.2849C83.9376 64.7031 83.4757 64.332 83.4757 64.332C83.0137 63.9609 82.3786 63.9609 82.3786 63.9609C81.9744 63.9609 81.3681 64.2417 81.3681 64.2417C80.7618 64.5226 80.3384 64.9238 80.3384 64.9238L80.3384 72.3862L77.2588 72.3862L77.2588 61.5537L80.3384 61.5537Z">
</path>
<path     fill="url(#linear_fill_7_5_9_0)"  d="M93.5228 77C92.3487 77 91.165 76.8395 91.165 76.8395C89.9813 76.679 89.0382 76.3781 89.0382 76.3781L89.0382 73.7503C91.0976 74.2317 93.1571 74.2317 93.1571 74.2317C94.4659 74.2317 95.1396 73.6299 95.1396 73.6299C95.8132 73.0281 95.8132 71.9649 95.8132 71.9649C94.7546 72.6871 93.2918 72.6871 93.2918 72.6871C91.8675 72.6871 90.7897 71.9649 90.7897 71.9649C89.7118 71.2427 89.1344 69.9689 89.1344 69.9689C88.557 68.6951 88.557 67.0301 88.557 67.0301C88.557 65.3651 89.144 64.0712 89.144 64.0712C89.7311 62.7773 90.7993 62.0552 90.7993 62.0552C91.8675 61.333 93.2918 61.333 93.2918 61.333C94.6199 61.333 95.8132 62.2558 95.8132 62.2558L95.8132 61.5938L98.8158 61.5938L98.8158 72.3862C98.8158 77 93.5228 77 93.5228 77ZM91.5018 67.0301C91.5018 67.9529 91.8579 68.7151 91.8579 68.7151C92.214 69.4774 92.801 69.9288 92.801 69.9288C93.3881 70.3801 94.0425 70.3801 94.0425 70.3801C94.5236 70.3801 95.1203 70.1494 95.1203 70.1494C95.717 69.9188 96.1404 69.1765 96.1404 69.1765L96.2367 68.7753L96.2367 65.0642C95.8325 64.2016 95.1973 63.9308 95.1973 63.9308C94.5621 63.66 94.0425 63.66 94.0425 63.66C93.3881 63.66 92.801 64.1013 92.801 64.1013C92.214 64.5426 91.8579 65.3149 91.8579 65.3149C91.5018 66.0873 91.5018 67.0301 91.5018 67.0301Z">
</path>
<path     fill="url(#linear_fill_7_5_9_1)"  d="M93.5228 77C92.3487 77 91.165 76.8395 91.165 76.8395C89.9813 76.679 89.0382 76.3781 89.0382 76.3781L89.0382 73.7503C91.0976 74.2317 93.1571 74.2317 93.1571 74.2317C94.4659 74.2317 95.1396 73.6299 95.1396 73.6299C95.8132 73.0281 95.8132 71.9649 95.8132 71.9649C94.7546 72.6871 93.2918 72.6871 93.2918 72.6871C91.8675 72.6871 90.7897 71.9649 90.7897 71.9649C89.7118 71.2427 89.1344 69.9689 89.1344 69.9689C88.557 68.6951 88.557 67.0301 88.557 67.0301C88.557 65.3651 89.144 64.0712 89.144 64.0712C89.7311 62.7773 90.7993 62.0552 90.7993 62.0552C91.8675 61.333 93.2918 61.333 93.2918 61.333C94.6199 61.333 95.8132 62.2558 95.8132 62.2558L95.8132 61.5938L98.8158 61.5938L98.8158 72.3862C98.8158 77 93.5228 77 93.5228 77ZM91.5018 67.0301C91.5018 67.9529 91.8579 68.7151 91.8579 68.7151C92.214 69.4774 92.801 69.9288 92.801 69.9288C93.3881 70.3801 94.0425 70.3801 94.0425 70.3801C94.5236 70.3801 95.1203 70.1494 95.1203 70.1494C95.717 69.9188 96.1404 69.1765 96.1404 69.1765L96.2367 68.7753L96.2367 65.0642C95.8325 64.2016 95.1973 63.9308 95.1973 63.9308C94.5621 63.66 94.0425 63.66 94.0425 63.66C93.3881 63.66 92.801 64.1013 92.801 64.1013C92.214 64.5426 91.8579 65.3149 91.8579 65.3149C91.5018 66.0873 91.5018 67.0301 91.5018 67.0301Z">
</path>
<path     fill="url(#linear_fill_7_5_10_0)"  d="">
</path>
<path     fill="url(#linear_fill_7_5_10_1)"  d="">
</path>
<path     fill="url(#linear_fill_7_5_11_0)"  d="M112.858 72.6871C110.664 72.6871 108.96 71.8445 108.96 71.8445C107.257 71.002 106.285 69.3972 106.285 69.3972C105.313 67.7924 105.313 65.5858 105.313 65.5858C105.313 63.2588 106.256 61.5838 106.256 61.5838C107.199 59.9087 108.893 59.016 108.893 59.016C110.587 58.1234 112.762 58.1234 112.762 58.1234C113.839 58.1234 114.937 58.344 114.937 58.344C116.034 58.5647 116.746 58.9057 116.746 58.9057L116.746 61.3932C114.802 60.651 113.127 60.651 113.127 60.651C111.126 60.651 109.884 61.8746 109.884 61.8746C108.643 63.0983 108.643 65.5858 108.643 65.5858C108.643 66.9097 109.259 67.9228 109.259 67.9228C109.875 68.9358 110.875 69.4975 110.875 69.4975C111.876 70.0592 113.031 70.1394 113.031 70.1394L113.455 70.1595C114.34 70.1595 115.206 69.8987 115.206 69.8987C116.072 69.6379 116.746 69.1966 116.746 69.1966L116.746 71.9649C115.918 72.3661 114.985 72.5266 114.985 72.5266C114.051 72.6871 112.858 72.6871 112.858 72.6871Z">
</path>
<path     fill="url(#linear_fill_7_5_11_1)"  d="M112.858 72.6871C110.664 72.6871 108.96 71.8445 108.96 71.8445C107.257 71.002 106.285 69.3972 106.285 69.3972C105.313 67.7924 105.313 65.5858 105.313 65.5858C105.313 63.2588 106.256 61.5838 106.256 61.5838C107.199 59.9087 108.893 59.016 108.893 59.016C110.587 58.1234 112.762 58.1234 112.762 58.1234C113.839 58.1234 114.937 58.344 114.937 58.344C116.034 58.5647 116.746 58.9057 116.746 58.9057L116.746 61.3932C114.802 60.651 113.127 60.651 113.127 60.651C111.126 60.651 109.884 61.8746 109.884 61.8746C108.643 63.0983 108.643 65.5858 108.643 65.5858C108.643 66.9097 109.259 67.9228 109.259 67.9228C109.875 68.9358 110.875 69.4975 110.875 69.4975C111.876 70.0592 113.031 70.1394 113.031 70.1394L113.455 70.1595C114.34 70.1595 115.206 69.8987 115.206 69.8987C116.072 69.6379 116.746 69.1966 116.746 69.1966L116.746 71.9649C115.918 72.3661 114.985 72.5266 114.985 72.5266C114.051 72.6871 112.858 72.6871 112.858 72.6871Z">
</path>
<path     fill="url(#linear_fill_7_5_12_0)"  d="M123.752 72.6871C122.116 72.6871 120.874 71.985 120.874 71.985C119.633 71.2829 118.959 69.989 118.959 69.989C118.286 68.6951 118.286 66.9298 118.286 66.9298C118.286 64.2217 119.748 62.7773 119.748 62.7773C121.211 61.333 123.752 61.333 123.752 61.333C126.273 61.333 127.736 62.7773 127.736 62.7773C129.199 64.2217 129.199 66.9298 129.199 66.9298C129.199 68.6951 128.525 69.989 128.525 69.989C127.852 71.2829 126.62 71.985 126.62 71.985C125.388 72.6871 123.752 72.6871 123.752 72.6871ZM121.327 66.9298C121.327 68.4744 122 69.4173 122 69.4173C122.674 70.3601 123.752 70.3601 123.752 70.3601C124.83 70.3601 125.494 69.4173 125.494 69.4173C126.158 68.4744 126.158 66.9298 126.158 66.9298C126.158 65.325 125.513 64.4925 125.513 64.4925C124.868 63.66 123.752 63.66 123.752 63.66C122.635 63.66 121.981 64.4925 121.981 64.4925C121.327 65.325 121.327 66.9298 121.327 66.9298Z">
</path>
<path     fill="url(#linear_fill_7_5_12_1)"  d="M123.752 72.6871C122.116 72.6871 120.874 71.985 120.874 71.985C119.633 71.2829 118.959 69.989 118.959 69.989C118.286 68.6951 118.286 66.9298 118.286 66.9298C118.286 64.2217 119.748 62.7773 119.748 62.7773C121.211 61.333 123.752 61.333 123.752 61.333C126.273 61.333 127.736 62.7773 127.736 62.7773C129.199 64.2217 129.199 66.9298 129.199 66.9298C129.199 68.6951 128.525 69.989 128.525 69.989C127.852 71.2829 126.62 71.985 126.62 71.985C125.388 72.6871 123.752 72.6871 123.752 72.6871ZM121.327 66.9298C121.327 68.4744 122 69.4173 122 69.4173C122.674 70.3601 123.752 70.3601 123.752 70.3601C124.83 70.3601 125.494 69.4173 125.494 69.4173C126.158 68.4744 126.158 66.9298 126.158 66.9298C126.158 65.325 125.513 64.4925 125.513 64.4925C124.868 63.66 123.752 63.66 123.752 63.66C122.635 63.66 121.981 64.4925 121.981 64.4925C121.327 65.325 121.327 66.9298 121.327 66.9298Z">
</path>
<path     fill="url(#linear_fill_7_5_13_0)"  d="M133.818 61.5737L133.818 62.7172C134.511 62.1354 135.358 61.8144 135.358 61.8144C136.205 61.4935 137.071 61.4935 137.071 61.4935C137.937 61.4935 138.572 61.8245 138.572 61.8245C139.207 62.1555 139.573 62.7372 139.573 62.7372C140.285 62.1354 141.132 61.8144 141.132 61.8144C141.979 61.4935 142.845 61.4935 142.845 61.4935C144.308 61.4935 145.097 62.3962 145.097 62.3962C145.886 63.2989 145.886 64.7432 145.886 64.7432L145.886 72.4263L142.807 72.4263L142.807 65.2849C142.807 64.7031 142.431 64.332 142.431 64.332C142.056 63.9609 141.44 63.9609 141.44 63.9609C141.171 63.9609 140.805 64.0812 140.805 64.0812C140.439 64.2016 140.093 64.4022 140.093 64.4022C140.112 64.5226 140.112 64.7432 140.112 64.7432L140.112 72.4263L137.033 72.4263L137.033 65.2849C137.033 64.7031 136.657 64.332 136.657 64.332C136.282 63.9609 135.666 63.9609 135.666 63.9609C135.3 63.9609 134.761 64.1815 134.761 64.1815C134.222 64.4022 133.818 64.7633 133.818 64.7633L133.818 72.4263L130.739 72.4263L130.739 61.5737L133.818 61.5737Z">
</path>
<path     fill="url(#linear_fill_7_5_13_1)"  d="M133.818 61.5737L133.818 62.7172C134.511 62.1354 135.358 61.8144 135.358 61.8144C136.205 61.4935 137.071 61.4935 137.071 61.4935C137.937 61.4935 138.572 61.8245 138.572 61.8245C139.207 62.1555 139.573 62.7372 139.573 62.7372C140.285 62.1354 141.132 61.8144 141.132 61.8144C141.979 61.4935 142.845 61.4935 142.845 61.4935C144.308 61.4935 145.097 62.3962 145.097 62.3962C145.886 63.2989 145.886 64.7432 145.886 64.7432L145.886 72.4263L142.807 72.4263L142.807 65.2849C142.807 64.7031 142.431 64.332 142.431 64.332C142.056 63.9609 141.44 63.9609 141.44 63.9609C141.171 63.9609 140.805 64.0812 140.805 64.0812C140.439 64.2016 140.093 64.4022 140.093 64.4022C140.112 64.5226 140.112 64.7432 140.112 64.7432L140.112 72.4263L137.033 72.4263L137.033 65.2849C137.033 64.7031 136.657 64.332 136.657 64.332C136.282 63.9609 135.666 63.9609 135.666 63.9609C135.3 63.9609 134.761 64.1815 134.761 64.1815C134.222 64.4022 133.818 64.7633 133.818 64.7633L133.818 72.4263L130.739 72.4263L130.739 61.5737L133.818 61.5737Z">
</path>
<path     fill="url(#linear_fill_7_5_14_0)"  d="M150.891 61.5737L150.891 62.7172C151.583 62.1354 152.43 61.8144 152.43 61.8144C153.277 61.4935 154.143 61.4935 154.143 61.4935C155.01 61.4935 155.645 61.8245 155.645 61.8245C156.28 62.1555 156.646 62.7372 156.646 62.7372C157.358 62.1354 158.205 61.8144 158.205 61.8144C159.051 61.4935 159.918 61.4935 159.918 61.4935C161.38 61.4935 162.17 62.3962 162.17 62.3962C162.959 63.2989 162.959 64.7432 162.959 64.7432L162.959 72.4263L159.879 72.4263L159.879 65.2849C159.879 64.7031 159.504 64.332 159.504 64.332C159.128 63.9609 158.513 63.9609 158.513 63.9609C158.243 63.9609 157.877 64.0812 157.877 64.0812C157.512 64.2016 157.165 64.4022 157.165 64.4022C157.184 64.5226 157.184 64.7432 157.184 64.7432L157.184 72.4263L154.105 72.4263L154.105 65.2849C154.105 64.7031 153.73 64.332 153.73 64.332C153.354 63.9609 152.738 63.9609 152.738 63.9609C152.373 63.9609 151.834 64.1815 151.834 64.1815C151.295 64.4022 150.891 64.7633 150.891 64.7633L150.891 72.4263L147.811 72.4263L147.811 61.5737L150.891 61.5737Z">
</path>
<path     fill="url(#linear_fill_7_5_14_1)"  d="M150.891 61.5737L150.891 62.7172C151.583 62.1354 152.43 61.8144 152.43 61.8144C153.277 61.4935 154.143 61.4935 154.143 61.4935C155.01 61.4935 155.645 61.8245 155.645 61.8245C156.28 62.1555 156.646 62.7372 156.646 62.7372C157.358 62.1354 158.205 61.8144 158.205 61.8144C159.051 61.4935 159.918 61.4935 159.918 61.4935C161.38 61.4935 162.17 62.3962 162.17 62.3962C162.959 63.2989 162.959 64.7432 162.959 64.7432L162.959 72.4263L159.879 72.4263L159.879 65.2849C159.879 64.7031 159.504 64.332 159.504 64.332C159.128 63.9609 158.513 63.9609 158.513 63.9609C158.243 63.9609 157.877 64.0812 157.877 64.0812C157.512 64.2016 157.165 64.4022 157.165 64.4022C157.184 64.5226 157.184 64.7432 157.184 64.7432L157.184 72.4263L154.105 72.4263L154.105 65.2849C154.105 64.7031 153.73 64.332 153.73 64.332C153.354 63.9609 152.738 63.9609 152.738 63.9609C152.373 63.9609 151.834 64.1815 151.834 64.1815C151.295 64.4022 150.891 64.7633 150.891 64.7633L150.891 72.4263L147.811 72.4263L147.811 61.5737L150.891 61.5737Z">
</path>
<path     fill="url(#linear_fill_7_5_15_0)"  d="M172.12 72.4463C171.812 71.8445 171.755 71.1625 171.755 71.1625C171.043 71.8245 170.051 72.2558 170.051 72.2558C169.06 72.6871 168.098 72.6871 168.098 72.6871C166.616 72.6871 165.74 71.7844 165.74 71.7844C164.864 70.8816 164.864 69.4574 164.864 69.4574L164.864 61.5938L167.944 61.5938L167.944 68.9157C167.944 69.4975 168.319 69.8686 168.319 69.8686C168.694 70.2397 169.31 70.2397 169.31 70.2397C169.714 70.2397 170.398 69.9388 170.398 69.9388C171.081 69.6379 171.543 69.2768 171.543 69.2768L171.543 61.5938L174.623 61.5938L174.623 70.3601C174.623 71.0221 174.7 71.4734 174.7 71.4734C174.777 71.9248 175.007 72.4463 175.007 72.4463L172.12 72.4463Z">
</path>
<path     fill="url(#linear_fill_7_5_15_1)"  d="M172.12 72.4463C171.812 71.8445 171.755 71.1625 171.755 71.1625C171.043 71.8245 170.051 72.2558 170.051 72.2558C169.06 72.6871 168.098 72.6871 168.098 72.6871C166.616 72.6871 165.74 71.7844 165.74 71.7844C164.864 70.8816 164.864 69.4574 164.864 69.4574L164.864 61.5938L167.944 61.5938L167.944 68.9157C167.944 69.4975 168.319 69.8686 168.319 69.8686C168.694 70.2397 169.31 70.2397 169.31 70.2397C169.714 70.2397 170.398 69.9388 170.398 69.9388C171.081 69.6379 171.543 69.2768 171.543 69.2768L171.543 61.5938L174.623 61.5938L174.623 70.3601C174.623 71.0221 174.7 71.4734 174.7 71.4734C174.777 71.9248 175.007 72.4463 175.007 72.4463L172.12 72.4463Z">
</path>
<path     fill="url(#linear_fill_7_5_16_0)"  d="M179.627 61.5537L179.627 62.8576C180.339 62.2156 181.253 61.8546 181.253 61.8546C182.167 61.4935 183.072 61.4935 183.072 61.4935C184.554 61.4935 185.43 62.3962 185.43 62.3962C186.306 63.2989 186.306 64.7432 186.306 64.7432L186.306 72.3862L183.226 72.3862L183.226 65.2849C183.226 64.7031 182.764 64.332 182.764 64.332C182.302 63.9609 181.667 63.9609 181.667 63.9609C181.263 63.9609 180.657 64.2417 180.657 64.2417C180.05 64.5226 179.627 64.9238 179.627 64.9238L179.627 72.3862L176.547 72.3862L176.547 61.5537L179.627 61.5537Z">
</path>
<path     fill="url(#linear_fill_7_5_16_1)"  d="M179.627 61.5537L179.627 62.8576C180.339 62.2156 181.253 61.8546 181.253 61.8546C182.167 61.4935 183.072 61.4935 183.072 61.4935C184.554 61.4935 185.43 62.3962 185.43 62.3962C186.306 63.2989 186.306 64.7432 186.306 64.7432L186.306 72.3862L183.226 72.3862L183.226 65.2849C183.226 64.7031 182.764 64.332 182.764 64.332C182.302 63.9609 181.667 63.9609 181.667 63.9609C181.263 63.9609 180.657 64.2417 180.657 64.2417C180.05 64.5226 179.627 64.9238 179.627 64.9238L179.627 72.3862L176.547 72.3862L176.547 61.5537L179.627 61.5537Z">
</path>
<path     fill="url(#linear_fill_7_5_17_0)"  d="M191.56 61.5938L191.56 72.4263L188.481 72.4263L188.481 61.5938L191.56 61.5938ZM188.481 57L191.56 57L191.56 60.2096L188.481 60.2096L188.481 57Z">
</path>
<path     fill="url(#linear_fill_7_5_17_1)"  d="M191.56 61.5938L191.56 72.4263L188.481 72.4263L188.481 61.5938L191.56 61.5938ZM188.481 57L191.56 57L191.56 60.2096L188.481 60.2096L188.481 57Z">
</path>
<path     fill="url(#linear_fill_7_5_18_0)"  d="M194.544 61.5938L194.544 58.5045L197.431 58.5045L197.431 61.5938L199.432 61.5938L199.432 64.0411L197.431 64.0411L197.431 68.6951C197.431 69.2768 197.517 69.5777 197.517 69.5777C197.604 69.8786 197.835 69.989 197.835 69.989C198.066 70.0993 198.508 70.0993 198.508 70.0993C198.797 70.0993 198.999 70.0792 198.999 70.0792C199.201 70.0592 199.355 70.0191 199.355 70.0191L199.355 72.4865C198.547 72.5868 197.854 72.5868 197.854 72.5868C196.526 72.5868 195.872 72.3059 195.872 72.3059C195.217 72.0251 194.88 71.333 194.88 71.333C194.544 70.6409 194.544 69.3571 194.544 69.3571L194.544 64.0411L193.042 64.0411L193.042 61.5938L194.544 61.5938Z">
</path>
<path     fill="url(#linear_fill_7_5_18_1)"  d="M194.544 61.5938L194.544 58.5045L197.431 58.5045L197.431 61.5938L199.432 61.5938L199.432 64.0411L197.431 64.0411L197.431 68.6951C197.431 69.2768 197.517 69.5777 197.517 69.5777C197.604 69.8786 197.835 69.989 197.835 69.989C198.066 70.0993 198.508 70.0993 198.508 70.0993C198.797 70.0993 198.999 70.0792 198.999 70.0792C199.201 70.0592 199.355 70.0191 199.355 70.0191L199.355 72.4865C198.547 72.5868 197.854 72.5868 197.854 72.5868C196.526 72.5868 195.872 72.3059 195.872 72.3059C195.217 72.0251 194.88 71.333 194.88 71.333C194.544 70.6409 194.544 69.3571 194.544 69.3571L194.544 64.0411L193.042 64.0411L193.042 61.5938L194.544 61.5938Z">
</path>
<path     fill="url(#linear_fill_7_5_19_0)"  d="M207.709 72.6871C207.074 74.7934 205.495 75.8365 205.495 75.8365C203.917 76.9198 200.818 77 200.818 77L200.818 74.4122C202.127 74.4122 203.089 74.1113 203.089 74.1113C203.975 73.8104 204.379 73.3089 204.379 73.3089C204.802 72.8074 205.014 72.005 205.014 72.005L205.264 71.0822L203.571 71.0822L199.817 61.5938L202.955 61.5938L205.765 69.1966L207.805 61.5938L211 61.5938L207.709 72.6871Z">
</path>
<path     fill="url(#linear_fill_7_5_19_1)"  d="M207.709 72.6871C207.074 74.7934 205.495 75.8365 205.495 75.8365C203.917 76.9198 200.818 77 200.818 77L200.818 74.4122C202.127 74.4122 203.089 74.1113 203.089 74.1113C203.975 73.8104 204.379 73.3089 204.379 73.3089C204.802 72.8074 205.014 72.005 205.014 72.005L205.264 71.0822L203.571 71.0822L199.817 61.5938L202.955 61.5938L205.765 69.1966L207.805 61.5938L211 61.5938L207.709 72.6871Z">
</path>
<defs>
<linearGradient id="linear_fill_7_4_0_0" x1="0" y1="24.5" x2="211" y2="24.5" gradientUnits="userSpaceOnUse">
<stop offset="0" stop-color="#FFFFFF"  />
<stop offset="1" stop-color="#B95EFF"  />
</linearGradient>
<linearGradient id="linear_fill_7_4_1_0" x1="0" y1="24.5" x2="211" y2="24.5" gradientUnits="userSpaceOnUse">
<stop offset="0" stop-color="#FFFFFF"  />
<stop offset="1" stop-color="#B95EFF"  />
</linearGradient>
<linearGradient id="linear_fill_7_4_2_0" x1="0" y1="24.5" x2="211" y2="24.5" gradientUnits="userSpaceOnUse">
<stop offset="0" stop-color="#FFFFFF"  />
<stop offset="1" stop-color="#B95EFF"  />
</linearGradient>
<linearGradient id="linear_fill_7_4_3_0" x1="0" y1="24.5" x2="211" y2="24.5" gradientUnits="userSpaceOnUse">
<stop offset="0" stop-color="#FFFFFF"  />
<stop offset="1" stop-color="#B95EFF"  />
</linearGradient>
<linearGradient id="linear_fill_7_5_0_0" x1="0" y1="67" x2="211" y2="67" gradientUnits="userSpaceOnUse">
<stop offset="0" stop-color="#FFFFFF"  />
<stop offset="1" stop-color="#B95EFF"  />
</linearGradient>
<linearGradient id="linear_fill_7_5_0_1" x1="0" y1="67" x2="211" y2="67" gradientUnits="userSpaceOnUse">
<stop offset="0" stop-color="#FFFFFF"  />
<stop offset="1" stop-color="#FFFFFF" stop-opacity="0" />
</linearGradient>
<linearGradient id="linear_fill_7_5_1_0" x1="0" y1="67" x2="211" y2="67" gradientUnits="userSpaceOnUse">
<stop offset="0" stop-color="#FFFFFF"  />
<stop offset="1" stop-color="#B95EFF"  />
</linearGradient>
<linearGradient id="linear_fill_7_5_1_1" x1="0" y1="67" x2="211" y2="67" gradientUnits="userSpaceOnUse">
<stop offset="0" stop-color="#FFFFFF"  />
<stop offset="1" stop-color="#FFFFFF" stop-opacity="0" />
</linearGradient>
<linearGradient id="linear_fill_7_5_2_0" x1="0" y1="67" x2="211" y2="67" gradientUnits="userSpaceOnUse">
<stop offset="0" stop-color="#FFFFFF"  />
<stop offset="1" stop-color="#B95EFF"  />
</linearGradient>
<linearGradient id="linear_fill_7_5_2_1" x1="0" y1="67" x2="211" y2="67" gradientUnits="userSpaceOnUse">
<stop offset="0" stop-color="#FFFFFF"  />
<stop offset="1" stop-color="#FFFFFF" stop-opacity="0" />
</linearGradient>
<linearGradient id="linear_fill_7_5_3_0" x1="0" y1="67" x2="211" y2="67" gradientUnits="userSpaceOnUse">
<stop offset="0" stop-color="#FFFFFF"  />
<stop offset="1" stop-color="#B95EFF"  />
</linearGradient>
<linearGradient id="linear_fill_7_5_3_1" x1="0" y1="67" x2="211" y2="67" gradientUnits="userSpaceOnUse">
<stop offset="0" stop-color="#FFFFFF"  />
<stop offset="1" stop-color="#FFFFFF" stop-opacity="0" />
</linearGradient>
<linearGradient id="linear_fill_7_5_4_0" x1="0" y1="67" x2="211" y2="67" gradientUnits="userSpaceOnUse">
<stop offset="0" stop-color="#FFFFFF"  />
<stop offset="1" stop-color="#B95EFF"  />
</linearGradient>
<linearGradient id="linear_fill_7_5_4_1" x1="0" y1="67" x2="211" y2="67" gradientUnits="userSpaceOnUse">
<stop offset="0" stop-color="#FFFFFF"  />
<stop offset="1" stop-color="#FFFFFF" stop-opacity="0" />
</linearGradient>
<linearGradient id="linear_fill_7_5_5_0" x1="0" y1="67" x2="211" y2="67" gradientUnits="userSpaceOnUse">
<stop offset="0" stop-color="#FFFFFF"  />
<stop offset="1" stop-color="#B95EFF"  />
</linearGradient>
<linearGradient id="linear_fill_7_5_5_1" x1="0" y1="67" x2="211" y2="67" gradientUnits="userSpaceOnUse">
<stop offset="0" stop-color="#FFFFFF"  />
<stop offset="1" stop-color="#FFFFFF" stop-opacity="0" />
</linearGradient>
<linearGradient id="linear_fill_7_5_6_0" x1="0" y1="67" x2="211" y2="67" gradientUnits="userSpaceOnUse">
<stop offset="0" stop-color="#FFFFFF"  />
<stop offset="1" stop-color="#B95EFF"  />
</linearGradient>
<linearGradient id="linear_fill_7_5_6_1" x1="0" y1="67" x2="211" y2="67" gradientUnits="userSpaceOnUse">
<stop offset="0" stop-color="#FFFFFF"  />
<stop offset="1" stop-color="#FFFFFF" stop-opacity="0" />
</linearGradient>
<linearGradient id="linear_fill_7_5_7_0" x1="0" y1="67" x2="211" y2="67" gradientUnits="userSpaceOnUse">
<stop offset="0" stop-color="#FFFFFF"  />
<stop offset="1" stop-color="#B95EFF"  />
</linearGradient>
<linearGradient id="linear_fill_7_5_7_1" x1="0" y1="67" x2="211" y2="67" gradientUnits="userSpaceOnUse">
<stop offset="0" stop-color="#FFFFFF"  />
<stop offset="1" stop-color="#FFFFFF" stop-opacity="0" />
</linearGradient>
<linearGradient id="linear_fill_7_5_8_0" x1="0" y1="67" x2="211" y2="67" gradientUnits="userSpaceOnUse">
<stop offset="0" stop-color="#FFFFFF"  />
<stop offset="1" stop-color="#B95EFF"  />
</linearGradient>
<linearGradient id="linear_fill_7_5_8_1" x1="0" y1="67" x2="211" y2="67" gradientUnits="userSpaceOnUse">
<stop offset="0" stop-color="#FFFFFF"  />
<stop offset="1" stop-color="#FFFFFF" stop-opacity="0" />
</linearGradient>
<linearGradient id="linear_fill_7_5_9_0" x1="0" y1="67" x2="211" y2="67" gradientUnits="userSpaceOnUse">
<stop offset="0" stop-color="#FFFFFF"  />
<stop offset="1" stop-color="#B95EFF"  />
</linearGradient>
<linearGradient id="linear_fill_7_5_9_1" x1="0" y1="67" x2="211" y2="67" gradientUnits="userSpaceOnUse">
<stop offset="0" stop-color="#FFFFFF"  />
<stop offset="1" stop-color="#FFFFFF" stop-opacity="0" />
</linearGradient>
<linearGradient id="linear_fill_7_5_10_0" x1="0" y1="67" x2="211" y2="67" gradientUnits="userSpaceOnUse">
<stop offset="0" stop-color="#FFFFFF"  />
<stop offset="1" stop-color="#B95EFF"  />
</linearGradient>
<linearGradient id="linear_fill_7_5_10_1" x1="0" y1="67" x2="211" y2="67" gradientUnits="userSpaceOnUse">
<stop offset="0" stop-color="#FFFFFF"  />
<stop offset="1" stop-color="#FFFFFF" stop-opacity="0" />
</linearGradient>
<linearGradient id="linear_fill_7_5_11_0" x1="0" y1="67" x2="211" y2="67" gradientUnits="userSpaceOnUse">
<stop offset="0" stop-color="#FFFFFF"  />
<stop offset="1" stop-color="#B95EFF"  />
</linearGradient>
<linearGradient id="linear_fill_7_5_11_1" x1="0" y1="67" x2="211" y2="67" gradientUnits="userSpaceOnUse">
<stop offset="0" stop-color="#FFFFFF"  />
<stop offset="1" stop-color="#FFFFFF" stop-opacity="0" />
</linearGradient>
<linearGradient id="linear_fill_7_5_12_0" x1="0" y1="67" x2="211" y2="67" gradientUnits="userSpaceOnUse">
<stop offset="0" stop-color="#FFFFFF"  />
<stop offset="1" stop-color="#B95EFF"  />
</linearGradient>
<linearGradient id="linear_fill_7_5_12_1" x1="0" y1="67" x2="211" y2="67" gradientUnits="userSpaceOnUse">
<stop offset="0" stop-color="#FFFFFF"  />
<stop offset="1" stop-color="#FFFFFF" stop-opacity="0" />
</linearGradient>
<linearGradient id="linear_fill_7_5_13_0" x1="0" y1="67" x2="211" y2="67" gradientUnits="userSpaceOnUse">
<stop offset="0" stop-color="#FFFFFF"  />
<stop offset="1" stop-color="#B95EFF"  />
</linearGradient>
<linearGradient id="linear_fill_7_5_13_1" x1="0" y1="67" x2="211" y2="67" gradientUnits="userSpaceOnUse">
<stop offset="0" stop-color="#FFFFFF"  />
<stop offset="1" stop-color="#FFFFFF" stop-opacity="0" />
</linearGradient>
<linearGradient id="linear_fill_7_5_14_0" x1="0" y1="67" x2="211" y2="67" gradientUnits="userSpaceOnUse">
<stop offset="0" stop-color="#FFFFFF"  />
<stop offset="1" stop-color="#B95EFF"  />
</linearGradient>
<linearGradient id="linear_fill_7_5_14_1" x1="0" y1="67" x2="211" y2="67" gradientUnits="userSpaceOnUse">
<stop offset="0" stop-color="#FFFFFF"  />
<stop offset="1" stop-color="#FFFFFF" stop-opacity="0" />
</linearGradient>
<linearGradient id="linear_fill_7_5_15_0" x1="0" y1="67" x2="211" y2="67" gradientUnits="userSpaceOnUse">
<stop offset="0" stop-color="#FFFFFF"  />
<stop offset="1" stop-color="#B95EFF"  />
</linearGradient>
<linearGradient id="linear_fill_7_5_15_1" x1="0" y1="67" x2="211" y2="67" gradientUnits="userSpaceOnUse">
<stop offset="0" stop-color="#FFFFFF"  />
<stop offset="1" stop-color="#FFFFFF" stop-opacity="0" />
</linearGradient>
<linearGradient id="linear_fill_7_5_16_0" x1="0" y1="67" x2="211" y2="67" gradientUnits="userSpaceOnUse">
<stop offset="0" stop-color="#FFFFFF"  />
<stop offset="1" stop-color="#B95EFF"  />
</linearGradient>
<linearGradient id="linear_fill_7_5_16_1" x1="0" y1="67" x2="211" y2="67" gradientUnits="userSpaceOnUse">
<stop offset="0" stop-color="#FFFFFF"  />
<stop offset="1" stop-color="#FFFFFF" stop-opacity="0" />
</linearGradient>
<linearGradient id="linear_fill_7_5_17_0" x1="0" y1="67" x2="211" y2="67" gradientUnits="userSpaceOnUse">
<stop offset="0" stop-color="#FFFFFF"  />
<stop offset="1" stop-color="#B95EFF"  />
</linearGradient>
<linearGradient id="linear_fill_7_5_17_1" x1="0" y1="67" x2="211" y2="67" gradientUnits="userSpaceOnUse">
<stop offset="0" stop-color="#FFFFFF"  />
<stop offset="1" stop-color="#FFFFFF" stop-opacity="0" />
</linearGradient>
<linearGradient id="linear_fill_7_5_18_0" x1="0" y1="67" x2="211" y2="67" gradientUnits="userSpaceOnUse">
<stop offset="0" stop-color="#FFFFFF"  />
<stop offset="1" stop-color="#B95EFF"  />
</linearGradient>
<linearGradient id="linear_fill_7_5_18_1" x1="0" y1="67" x2="211" y2="67" gradientUnits="userSpaceOnUse">
<stop offset="0" stop-color="#FFFFFF"  />
<stop offset="1" stop-color="#FFFFFF" stop-opacity="0" />
</linearGradient>
<linearGradient id="linear_fill_7_5_19_0" x1="0" y1="67" x2="211" y2="67" gradientUnits="userSpaceOnUse">
<stop offset="0" stop-color="#FFFFFF"  />
<stop offset="1" stop-color="#B95EFF"  />
</linearGradient>
<linearGradient id="linear_fill_7_5_19_1" x1="0" y1="67" x2="211" y2="67" gradientUnits="userSpaceOnUse">
<stop offset="0" stop-color="#FFFFFF"  />
<stop offset="1" stop-color="#FFFFFF" stop-opacity="0" />
</linearGradient>
</defs>
</svg>
